<svg xmlns="http://www.w3.org/2000/svg" width="165" height="189" viewBox="0 0 165 189">
    <g fill="#FFF" fill-rule="evenodd">
        <path d="M82.218 174.494c-37.502 0-67.901-30.453-67.901-68.021s30.41-68.02 67.901-68.02 67.902 30.452 67.902 68.02-30.41 68.02-67.902 68.02m61.914-121.345l7.43-7.455 2.211 2.202c2.052 2.056 5.378 2.056 7.408 0a5.235 5.235 0 0 0 0-7.432l-11.118-11.149c-2.052-2.055-5.378-2.055-7.419 0a5.27 5.27 0 0 0 0 7.444l2.458 2.44-7.307 7.32c-12.73-11.782-29.18-19.553-47.39-21.35v-6.832h5.287c4.917 0 8.897-4 8.897-8.912 0-4.926-3.992-8.924-8.897-8.924h-26.7c-4.916 0-8.907 3.998-8.907 8.924 0 4.924 3.99 8.912 8.907 8.912h5.863v6.8h-.327c-19.27 1.84-36.589 10.357-49.612 23.245l-4.544 4.913C8.07 67.628.583 86.22.583 106.62c0 45.215 36.6 81.88 81.737 81.88 45.158 0 81.736-36.665 81.736-81.88.011-20.467-7.543-39.127-19.924-53.472"/>
        <path d="M87.597 100.385V57.519l-4.94-7.93-5.614 7.93v42.866c-3.078 1.819-5.164 5.14-5.164 8.98 0 5.772 4.679 10.448 10.43 10.448 5.75 0 10.44-4.676 10.44-10.448.012-3.84-2.063-7.161-5.152-8.98"/>
    </g>
</svg>
