<svg xmlns="http://www.w3.org/2000/svg" width="338" height="338" viewBox="0 0 338 338">
    <g fill="none" fill-rule="evenodd">
        <path fill="#FF0058" d="M337.449 168.965c0 93.013-75.401 168.414-168.414 168.414C76.022 337.379.621 261.978.621 168.965.621 75.952 76.022.55 169.035.55c93.013 0 168.414 75.401 168.414 168.414"/>
        <path fill="#FFF" d="M145.579 161.275a1317.335 1317.335 0 0 0 21.187-31.87 1427.4 1427.4 0 0 1-16.128-25.738 34.656 34.656 0 0 1-1.51-2.767c-3.953-8.022-7.865-22.326-1.882-31.257-.003.002-16.722 14.052-20.54 37.668-1.514 9.366.143 18.968 4.513 27.389 3.23 6.226 8.041 15.275 14.36 26.575M192.811 168.472a1295.078 1295.078 0 0 1-21.544 36.604 1358.393 1358.393 0 0 0 43.27 66.184l5.395-30.482 24.817-4.046s-20.58-23.06-51.938-68.26"/>
        <path fill="#FFF" d="M191.45 163.133c.352-.625.7-1.245 1.041-1.857 6.32-11.301 11.13-20.35 14.36-26.577 4.37-8.42 6.027-18.022 4.513-27.387-3.817-23.618-20.537-37.667-20.54-37.67 5.984 8.932 2.072 23.235-1.88 31.257a34.978 34.978 0 0 1-1.512 2.769 1427.408 1427.408 0 0 1-16.127 25.738c-.378.586-.756 1.178-1.13 1.76l-1.14 1.765a1300.963 1300.963 0 0 1-23.776 35.541c-31.358 45.2-51.937 68.26-51.937 68.26l24.816 4.046 5.396 30.482a1360.193 1360.193 0 0 0 43.27-66.183l1.119-1.829a1276.268 1276.268 0 0 0 23.527-40.115"/>
        <path fill="#FFF" d="M152.375 98.846a36.496 36.496 0 0 1 5.333-2.365 34.001 34.001 0 0 1 22.655 0 36.496 36.496 0 0 1 5.333 2.365c1.462-3.05 3.005-7.228 3.82-11.719 3.51-17.484-6.01-21.555-6.01-21.555-3.565-1.38-8.405-2.875-14.471-2.875-6.066 0-10.906 1.495-14.47 2.875 0 0-9.52 4.07-6.01 21.555.814 4.491 2.357 8.67 3.82 11.72"/>
    </g>
</svg>
