<svg xmlns="http://www.w3.org/2000/svg" xmlns:xlink="http://www.w3.org/1999/xlink" width="101" height="101" viewBox="0 0 101 101">
    <defs>
        <path id="a" d="M0 .31h100.665V101H0"/>
    </defs>
    <g fill="none" fill-rule="evenodd">
        <g>
            <mask id="b" fill="#fff">
                <use xlink:href="#a"/>
            </mask>
            <path fill="#FF0058" d="M50.333 96.92c-25.504 0-46.255-20.755-46.255-46.265S24.828 4.39 50.333 4.39c25.504 0 46.254 20.755 46.254 46.265S75.837 96.92 50.333 96.92m0-96.61C22.58.31-.001 22.892-.001 50.655 0 78.415 22.581 101 50.333 101c27.752 0 50.333-22.585 50.333-50.345C100.666 22.892 78.085.31 50.333.31" mask="url(#b)"/>
        </g>
        <path fill="#FF0058" d="M19.093 65.096a2.54 2.54 0 0 0-.93 3.47 2.54 2.54 0 0 0 3.471.934 2.545 2.545 0 0 0 .932-3.474 2.54 2.54 0 0 0-3.473-.93M81.475 34.943a2.543 2.543 0 1 0-2.539-4.406 2.543 2.543 0 0 0 2.54 4.406M34.085 22.514a2.543 2.543 0 1 0-2.543-4.405 2.543 2.543 0 0 0 2.543 4.405M66.09 77.966a2.539 2.539 0 0 0-.928 3.47 2.541 2.541 0 0 0 4.401-2.54 2.54 2.54 0 0 0-3.473-.93M34.17 77.775a2.54 2.54 0 0 0-3.472.932 2.54 2.54 0 0 0 .932 3.47 2.545 2.545 0 0 0 3.473-.928 2.544 2.544 0 0 0-.932-3.474M68.72 17.919a2.544 2.544 0 0 0-2.543 4.404 2.54 2.54 0 0 0 3.472-.932 2.54 2.54 0 0 0-.93-3.472M18.923 35.262a2.542 2.542 0 1 0-.933-3.472 2.542 2.542 0 0 0 .933 3.472M81.306 65.416a2.541 2.541 0 1 0-2.542 4.402 2.541 2.541 0 0 0 2.542-4.402M50.05 52.75c.263 0 .528-.05.781-.155l16.312-6.762a2.039 2.039 0 0 0 1.104-2.667 2.045 2.045 0 0 0-2.666-1.103l-15.056 6.242L29.078 26.94a2.041 2.041 0 0 0-2.88 2.89L48.61 52.158c.39.387.91.593 1.44.593M84.881 51.382a1.378 1.378 0 0 1-1.376-1.375c0-.761.618-1.38 1.376-1.38a1.38 1.38 0 0 1 1.377 1.38c0 .757-.618 1.375-1.377 1.375m0-6.834a5.463 5.463 0 0 0-5.455 5.459 5.462 5.462 0 0 0 5.455 5.455 5.462 5.462 0 0 0 5.456-5.455 5.463 5.463 0 0 0-5.456-5.46M15.785 51.382a1.378 1.378 0 0 1-1.377-1.375c0-.761.618-1.38 1.377-1.38a1.378 1.378 0 0 1 0 2.754m5.453-1.374a5.461 5.461 0 0 0-5.453-5.46 5.463 5.463 0 0 0-5.456 5.46 5.462 5.462 0 0 0 5.456 5.455 5.46 5.46 0 0 0 5.453-5.455M50.297 14.228c.759 0 1.377.619 1.377 1.377 0 .76-.618 1.377-1.377 1.377a1.379 1.379 0 0 1-1.377-1.377c0-.758.618-1.377 1.377-1.377m0 6.834a5.463 5.463 0 0 0 5.456-5.457 5.463 5.463 0 0 0-5.456-5.457 5.463 5.463 0 0 0-5.456 5.457 5.463 5.463 0 0 0 5.456 5.457M50.297 86.034a1.378 1.378 0 0 1-1.377-1.375c0-.761.618-1.38 1.377-1.38a1.38 1.38 0 0 1 1.377 1.38c0 .757-.618 1.375-1.377 1.375m0-6.834a5.464 5.464 0 0 0-5.456 5.459 5.462 5.462 0 0 0 5.456 5.455 5.462 5.462 0 0 0 5.456-5.455 5.464 5.464 0 0 0-5.456-5.46"/>
    </g>
</svg>
