<svg xmlns="http://www.w3.org/2000/svg" xmlns:xlink="http://www.w3.org/1999/xlink" width="88" height="101" viewBox="0 0 88 101">
    <defs>
        <path id="a" d="M0 .269h87.071V101H0"/>
    </defs>
    <g fill="none" fill-rule="evenodd">
        <g>
            <mask id="b" fill="#fff">
                <use xlink:href="#a"/>
            </mask>
            <path fill="#FF0058" d="M45.535 96.9v-7.722a2 2 0 0 0-3.997 0V96.9C21.332 95.882 5.116 79.662 4.1 59.45h7.718a1.997 1.997 0 0 0 1.999-1.999c0-1.106-.894-2-2-2H4.1c1.016-20.207 17.232-36.427 37.438-37.445v7.721a1.998 1.998 0 1 0 3.997 0v-7.721c20.204 1.018 36.42 17.238 37.438 37.446h-7.72a1.998 1.998 0 1 0 0 3.998h7.72c-1.018 20.21-17.234 36.43-37.438 37.449M37.76 13.692a6.408 6.408 0 0 1-.704-2.942c0-3.574 2.906-6.483 6.48-6.483a6.49 6.49 0 0 1 5.78 9.425 1.92 1.92 0 0 0-.174.618c-1.84-.238-3.702-.404-5.604-.404-1.903 0-3.767.166-5.607.404a1.97 1.97 0 0 0-.171-.618M53.098 15c.597-1.34.918-2.762.918-4.25 0-5.779-4.701-10.483-10.482-10.483-5.775 0-10.477 4.704-10.477 10.483 0 1.488.319 2.91.916 4.25C14.56 19.373.001 36.73.001 57.452 0 81.462 19.529 101 43.537 101c24.005 0 43.535-19.537 43.535-43.548 0-20.722-14.558-38.079-33.974-42.452" mask="url(#b)"/>
        </g>
        <path fill="#FF0058" d="M50.02 61.111l-5.807-5.806-4.334-4.337L61.09 39.895 50.02 61.111zm-24.04 13.9l11.072-21.215 4.334 4.337 5.807 5.806L25.98 75.012zm38.902-41.607l-29.267 15.28c-.043.022-.068.067-.108.093-.133.082-.235.19-.347.302-.11.11-.218.21-.3.345-.024.04-.07.063-.094.106L19.492 78.804a1.997 1.997 0 0 0 1.773 2.925c.314 0 .632-.073.923-.226l29.27-15.28c.042-.022.065-.067.106-.094.134-.081.236-.19.346-.3.11-.112.219-.212.3-.344.027-.043.072-.065.094-.108L67.58 36.103a2 2 0 0 0-2.698-2.7z"/>
    </g>
</svg>
