<svg xmlns="http://www.w3.org/2000/svg" xmlns:xlink="http://www.w3.org/1999/xlink" width="95" height="96" viewBox="0 0 95 96">
    <defs>
        <path id="a" d="M0 .637h94.338V95.06H0"/>
    </defs>
    <g fill="none" fill-rule="evenodd">
        <path fill="#FF0058" d="M55.388 81.33c-.496-4.928-1.001-17.782 6.14-24.74 4.356-4.251 11.02-5.607 19.768-4.117C79.408 66.48 69.08 77.965 55.388 81.33zM38.234 56.79c-4.926-4.931-4.926-12.953 0-17.883a12.552 12.552 0 0 1 8.934-3.698c3.38 0 6.553 1.315 8.934 3.698 4.926 4.93 4.928 12.952.002 17.883a12.552 12.552 0 0 1-8.934 3.697c-3.38 0-6.553-1.315-8.936-3.697zm-25.188-4.282c8.635-1.415 15.247-.042 19.616 4.172 7.193 6.933 6.83 19.757 6.39 24.674-13.745-3.33-24.1-14.803-26.006-28.846zm1.203-14.83C18.675 23.243 31.871 13.35 47.17 13.35c15.295 0 28.494 9.892 32.92 24.327H60.116a16.295 16.295 0 0 0-1.302-1.486 16.354 16.354 0 0 0-11.647-4.823 16.357 16.357 0 0 0-11.646 4.823c-.472.472-.9.973-1.303 1.486H14.25zm70.013 11.614a1.891 1.891 0 0 0-.75-.344c-8.176-1.645-14.91-1.096-20.118 1.617a16.564 16.564 0 0 0-1.023-9.047h20.226c.086 0 .159-.039.241-.05.071-.008.136.011.206-.006.051-.011.088-.046.136-.061a1.88 1.88 0 0 0 .35-.162c.116-.063.223-.13.32-.215.076-.067.137-.14.203-.217.1-.119.184-.238.253-.376.034-.073.06-.148.086-.224.056-.166.092-.33.102-.511.002-.035.02-.064.02-.098 0-.046-.024-.087-.026-.133-.008-.103.015-.203-.01-.307C80.421 21.703 65.08 9.511 47.17 9.511c-17.912 0-33.255 12.192-37.31 29.65-.023.1-.002.199-.01.299-.002.048-.027.09-.027.138 0 .036.02.067.021.104.01.176.045.34.102.503.027.078.05.153.086.228.07.138.156.26.256.376.063.077.122.148.197.215.1.087.21.154.328.221.11.062.217.114.34.154.05.015.088.052.142.065.14.035.28.046.418.048.01 0 .02.006.029.006h20.225a16.583 16.583 0 0 0-.992 9.264c-5.277-2.824-12.108-3.431-20.423-1.755-.107.023-.191.084-.291.123-.112.04-.219.075-.319.134-.098.06-.176.135-.26.21-.108.094-.212.184-.294.3-.052.068-.083.143-.123.218a1.76 1.76 0 0 0-.192.459c-.015.065-.015.134-.023.201-.019.137-.06.267-.048.41 1.447 17.247 14.346 31.434 31.37 34.498a1.918 1.918 0 0 0 2.23-1.55c0-.01-.003-.017-.001-.024.001-.01.007-.018.01-.03.097-.6 1.758-11.26-1.603-20.84a16.468 16.468 0 0 0 6.162 1.191c2.108 0 4.151-.403 6.054-1.153-3.226 9.584-1.469 20.221-1.363 20.822a.02.02 0 0 0 .001.008c.002.005 0 .007 0 .007.027.148.094.271.15.402.033.074.044.159.086.228.34.578.965.947 1.65.947.096 0 .194-.012.292-.027.013-.002.027 0 .038-.002l.002-.002h.017C71.007 82.45 83.851 68.31 85.328 51.17a1.911 1.911 0 0 0-1.066-1.878z"/>
        <g>
            <mask id="b" fill="#fff">
                <use xlink:href="#a"/>
            </mask>
            <path fill="#FF0058" d="M47.17 91.219c-23.894 0-43.333-19.457-43.333-43.373 0-23.914 19.44-43.369 43.333-43.369 23.893 0 43.332 19.455 43.332 43.369 0 23.916-19.44 43.373-43.332 43.373m0-90.582C21.16.637 0 21.817 0 47.846c0 26.033 21.16 47.213 47.17 47.213 26.009 0 47.168-21.18 47.168-47.213 0-26.03-21.16-47.209-47.168-47.209" mask="url(#b)"/>
        </g>
    </g>
</svg>
