<svg xmlns="http://www.w3.org/2000/svg" width="46" height="47" viewBox="0 0 46 47">
    <g fill="#FFF" fill-rule="evenodd">
        <path d="M30.46 15.732h-1.953c-.293 0-.489.194-.489.485v1.938c0 .291.196.486.49.486h1.952c.294 0 .49-.195.49-.486v-1.938c0-.29-.196-.485-.49-.485M23.134 27.365c2.149 0 3.908-1.745 3.908-3.878s-1.759-3.878-3.908-3.878c-2.15 0-3.908 1.745-3.908 3.878s1.759 3.878 3.908 3.878"/>
        <path d="M28.995 23.487c0 3.2-2.638 5.817-5.861 5.817-3.224 0-5.861-2.617-5.861-5.817 0-.29 0-.678.097-.969h-2.052v8.24c0 .291.196.486.49.486H30.46c.293 0 .487-.195.487-.485v-8.24h-2.05c.097.29.097.678.097.968"/>
        <path d="M32.903 31.243c0 1.067-.88 1.939-1.953 1.939H15.32a1.952 1.952 0 0 1-1.955-1.939V15.732c0-1.066.88-1.939 1.954-1.939h15.63c1.074 0 1.954.873 1.954 1.939v15.511zM23.133.783C10.5.782.257 10.947.257 23.486c0 12.541 10.243 22.704 22.878 22.704 12.634 0 22.878-10.163 22.878-22.704C46.012 10.948 35.768.782 23.134.782z"/>
    </g>
</svg>
