<svg xmlns="http://www.w3.org/2000/svg" width="47" height="47" viewBox="0 0 47 47">
    <path fill="#FFF" fill-rule="evenodd" d="M26.078 28.543c-1.419 0-2.754-.76-3.21-1.625 0 0-.764 3.005-.925 3.584-.57 2.05-2.244 4.101-2.372 4.269-.09.116-.292.08-.314-.075-.035-.261-.463-2.847.04-4.956.253-1.058 1.69-7.106 1.69-7.106s-.42-.832-.42-2.062c0-1.934 1.13-3.376 2.537-3.376 1.195 0 1.77.89 1.77 1.957 0 1.192-.764 2.976-1.158 4.629-.33 1.382.698 2.51 2.073 2.51 2.49 0 4.167-3.173 4.167-6.935 0-2.856-1.94-4.996-5.468-4.996-3.985 0-6.47 2.951-6.47 6.246 0 1.137.339 1.937.868 2.556.243.285.276.402.188.73-.064.238-.207.817-.268 1.044-.086.332-.358.448-.658.326-1.836-.742-2.691-2.737-2.691-4.982 0-3.704 3.147-8.147 9.393-8.147 5.016 0 8.319 3.605 8.319 7.473 0 5.114-2.867 8.936-7.091 8.936M23.716.783C11.08.784.838 10.95.838 23.488c0 12.541 10.243 22.706 22.878 22.706 12.634 0 22.878-10.165 22.878-22.706C46.594 10.95 36.35.784 23.716.784"/>
</svg>
