<svg xmlns="http://www.w3.org/2000/svg" width="47" height="47" viewBox="0 0 47 47">
    <path fill="#FFF" fill-rule="evenodd" d="M32.394 18.859c.01.2.014.399.014.602 0 6.155-4.721 13.253-13.355 13.253-2.652 0-5.117-.77-7.195-2.093.368.041.74.064 1.12.064a9.45 9.45 0 0 0 5.828-1.992 4.696 4.696 0 0 1-4.383-3.236 4.77 4.77 0 0 0 2.118-.08c-2.145-.429-3.765-2.31-3.765-4.567v-.058c.635.349 1.357.558 2.126.582a4.648 4.648 0 0 1-1.451-6.22 13.353 13.353 0 0 0 9.673 4.867 4.71 4.71 0 0 1-.12-1.061c0-2.573 2.1-4.656 4.694-4.656 1.349 0 2.57.565 3.425 1.469a9.43 9.43 0 0 0 2.981-1.131 4.673 4.673 0 0 1-2.063 2.577 9.412 9.412 0 0 0 2.695-.731 9.49 9.49 0 0 1-2.342 2.411M23.297.783C10.663.783.42 10.95.42 23.488c0 12.541 10.244 22.704 22.878 22.704 12.635 0 22.878-10.163 22.878-22.704C46.175 10.949 35.932.783 23.297.783"/>
</svg>
